<svg fill="none" height="1000" viewBox="0 0 4380 1000" width="4380" xmlns="http://www.w3.org/2000/svg" xmlns:xlink="http://www.w3.org/1999/xlink"><filter id="a" color-interpolation-filters="sRGB" filterUnits="userSpaceOnUse" height="66.377" width="28.4062" x="352.664" y="442.896"><feFlood flood-opacity="0" result="BackgroundImageFix"/><feColorMatrix in="SourceAlpha" result="hardAlpha" type="matrix" values="0 0 0 0 0 0 0 0 0 0 0 0 0 0 0 0 0 0 127 0"/><feOffset dy="4"/><feGaussianBlur stdDeviation="2"/><feComposite in2="hardAlpha" operator="out"/><feColorMatrix type="matrix" values="0 0 0 0 0 0 0 0 0 0 0 0 0 0 0 0 0 0 0.25 0"/><feBlend in2="BackgroundImageFix" mode="normal" result="effect1_dropShadow_15_324"/><feBlend in="SourceGraphic" in2="effect1_dropShadow_15_324" mode="normal" result="shape"/></filter><path d="m0 0h4380v1000h-4380z" fill="#e5d2cc"/><path d="m651.798 728v-27.686l35.815-6.152v-252.026l-35.815-6.153v-27.905h114.917v27.905l-35.816 6.153v110.522h152.93v-110.522l-35.815-6.153v-27.905h35.815 43.286 35.816v27.905l-35.816 6.153v252.026l35.816 6.152v27.686h-114.917v-27.686l35.815-6.152v-107.446h-152.93v107.446l35.816 6.152v27.686zm378.232 0v-27.686l35.81-6.152v-252.026l-35.81-6.153v-27.905h236.86v76.904h-34.72l-4.83-43.505h-118.21v104.15h117.99v34.058h-117.99v115.795h125.24l4.84-44.165h34.49v76.685zm318.46 0v-27.686l35.81-6.152v-252.026l-35.81-6.153v-27.685h142.6c23.29 0 42.92 3.515 58.89 10.547 16.11 6.884 28.34 16.919 36.69 30.102 8.35 13.184 12.53 29.297 12.53 48.34 0 18.75-4.1 34.497-12.31 47.241-8.05 12.744-19.55 22.412-34.49 29.004-14.95 6.446-32.67 9.888-53.18 10.327l-71.63 1.319v108.984l35.82 6.152v27.686zm211.16 0-71.19-159.741 43.28-.44 59.11 127.881 22.19 3.955v28.345zm-132.06-176.88h59.11c24.17 0 41.75-4.614 52.73-13.843 10.99-9.228 16.48-22.705 16.48-40.429 0-16.846-5.27-30.176-15.82-39.991-10.55-9.814-26.88-14.721-49-14.721h-63.5zm256.94 176.88v-27.686l35.82-6.152v-252.026l-35.82-6.153v-27.905h236.87v76.904h-34.72l-4.84-43.505h-118.21v104.15h117.99v34.058h-117.99v115.795h125.25l4.83-44.165h34.5v76.685zm449.7 0v-27.686l35.81-6.152v-253.345h-72.51l-6.37 44.385h-32.52v-77.124h265.87v77.124h-32.08l-6.59-44.385h-72.51v253.345l35.82 6.152v27.686zm385.92 4.614c-20.66 0-39.19-3.955-55.59-11.865-16.41-7.91-30.4-19.043-41.97-33.398-11.43-14.502-20.22-31.641-26.37-51.416-6-19.776-9.01-41.602-9.01-65.479v-4.614c0-23.731 3.01-45.484 9.01-65.259 6.15-19.922 14.94-37.134 26.37-51.636 11.57-14.502 25.56-25.708 41.97-33.618 16.4-7.91 34.93-11.865 55.59-11.865 21.82 0 41.01 3.955 57.57 11.865 16.55 7.91 30.39 19.116 41.52 33.618 11.28 14.502 19.78 31.714 25.49 51.636 5.72 19.775 8.57 41.528 8.57 65.259v4.614c0 23.877-2.85 45.703-8.57 65.479-5.71 19.775-14.21 36.914-25.49 51.416-11.13 14.355-24.97 25.488-41.52 33.398-16.56 7.91-35.75 11.865-57.57 11.865zm0-36.035c21.24 0 38.38-5.273 51.41-15.82 13.19-10.547 22.86-25.269 29.01-44.165 6.15-19.043 9.23-41.089 9.23-66.138v-5.054c0-24.902-3.15-46.728-9.45-65.478-6.15-18.897-15.82-33.618-29.01-44.165-13.18-10.694-30.25-16.04-51.19-16.04-19.19 0-35.45 5.346-48.78 16.04-13.33 10.693-23.44 25.488-30.32 44.385-6.89 18.75-10.33 40.502-10.33 65.258v5.054c0 24.902 3.44 46.875 10.33 65.918 6.88 18.897 16.99 33.691 30.32 44.385 13.33 10.547 29.59 15.82 48.78 15.82zm421.13 37.061c-30.26 0-57.47-3.133-81.64-9.4-24.17-6.266-48.07-17.545-71.71-33.838v-98.022h66.34l8.32 53.979c6.81 6.625 17.37 12.085 31.69 16.382s29.99 6.446 47 6.446c13.07 0 24.08-1.701 33.03-5.103 8.95-3.581 15.76-8.594 20.41-15.039 4.66-6.624 6.98-14.413 6.98-23.364 0-8.594-2.15-16.203-6.44-22.827-4.12-6.804-11.01-13.07-20.68-18.799s-22.74-11.369-39.21-16.919c-32.23-9.847-58.81-20.231-79.76-31.153-20.77-11.1-36.35-24.17-46.73-39.209-10.2-15.218-15.31-33.837-15.31-55.859 0-21.305 6-40.015 18-56.128 12.17-16.292 28.82-29.093 49.95-38.403 21.12-9.31 45.47-14.144 73.04-14.502 30.98-.716 58.37 2.596 82.18 9.936 23.81 7.341 44.58 17.904 62.31 31.69v91.04h-63.92l-10.74-52.905c-6.45-3.76-15.4-7.072-26.86-9.937-11.28-2.865-23.81-4.297-37.59-4.297-11.82 0-22.29 1.701-31.43 5.103-8.95 3.222-16.11 8.146-21.48 14.77-5.19 6.446-7.79 14.413-7.79 23.902 0 7.698 2.24 14.591 6.72 20.678 4.47 6.088 12.17 11.996 23.09 17.725 10.92 5.55 26.05 11.727 45.39 18.53 43.68 12.533 76.8 28.646 99.36 48.34 22.74 19.694 34.11 45.923 34.11 78.687 0 22.737-6.18 42.252-18.53 58.544-12.18 16.114-29.27 28.467-51.3 37.061-22.02 8.594-47.62 12.891-76.8 12.891zm316.57-5.64v-50.757l41.36-8.325v-265.601h-66.07l-3.49 44.58h-64.72v-110.913h355.57v110.913h-65.53l-3.22-44.58h-66.6v265.601l41.35 8.325v50.757zm290.52 0v-50.757l27.93-4.028 120.58-336.231h90.51l120.31 336.231 27.66 4.028v50.757h-139.11v-50.757l26.32-4.834-14.77-48.34h-131.86l-14.24 48.34 26.32 4.834v50.757zm146.9-165.698h93.19l-41.89-126.758-4.03-12.622h-1.61l-4.3 13.696zm355.25 165.698v-50.757l41.09-8.325v-72.51l-114.68-202.759-39.21-5.639v-51.026h162.48v51.026l-28.47 4.565 59.62 116.553 6.18 12.891h1.88l6.44-12.354 67.68-117.09-41.9-4.565v-51.026h158.99v51.026l-39.75 5.639-113.6 196.045v79.224l41.36 8.325v50.757z" fill="#771710"/><path d="m532 808v-500" stroke="#771710" stroke-width="12"/><path d="m402.878 748.745-8.899-15.278 5.797-577.02 9.099.046.464-55.372-30.541-.371s3.642-19.5517-.758-29.4461c-4.446-9.8454-17.955-20.8166-17.955-20.8166l.251-29.3508-5.586-.1365h-7.969l-.254 29.2993s-13.672 10.8758-18.331 20.5358c-4.609 9.8454-1.422 29.3969-1.422 29.3969l-30.544-.2342-.505 55.5112 8.972.141-5.739 576.876-9.236 15.235-2.052 205.26h-50.179l-30.039-397.72-102.452 11.298 29.494 386.422h-25.716v25.129h154.737 178.717v-25.129h-41.416z" fill="#221d3f"/><g fill="#c9a12d" stroke="#000" stroke-width=".065182"><path d="m159.946 679.485-19.563 3.419-4.265-57.419 19.564-3.42z" opacity=".5"/><path d="m167.735 767.053-19.563 3.42-4.265-57.42 19.564-3.42z"/><path d="m175.516 858.604-19.563 3.419-4.264-57.419 19.563-3.42z"/><path d="m191.095 675.5-19.564 3.42-4.264-57.42 19.563-3.419z"/><path d="m198.876 763.073-19.564 3.419-4.264-57.42 19.563-3.419z" opacity=".5"/><path d="m206.649 854.627-19.563 3.42-4.265-57.42 19.564-3.419z" opacity=".5"/><path d="m345.234 238.527-19.687-.527.329-28.891.328-28.891 19.687.527z"/><path d="m345.234 326.101-19.687-.527.329-28.891.328-28.891 19.687.527z" opacity=".5"/><path d="m345.234 413.672-19.687-.527.329-28.892.328-28.891 19.687.527z"/><path d="m345.234 501.24-19.687-.527.329-28.891.328-28.892 19.687.528z"/><path d="m345.234 588.816-19.687-.527.329-28.891.328-28.891 19.687.527z" opacity=".5"/><path d="m376.382 238.527-19.687-.527.329-28.891.329-28.891 19.687.527z" opacity=".5"/><path d="m376.382 326.101-19.687-.527.329-28.891.329-28.891 19.687.527z"/><path d="m376.382 413.672-19.687-.527.329-28.892.329-28.891 19.687.527z"/></g><g filter="url(#a)" opacity=".5"><path d="m376.382 501.24-19.687-.527.329-28.891.329-28.892 19.687.528z" fill="#c9a12d"/><path d="m376.382 501.24-19.687-.527.329-28.891.329-28.892 19.687.528z" stroke="#000" stroke-width=".065182"/></g><path d="m376.382 588.816-19.687-.527.329-28.891.329-28.891 19.687.527z" fill="#c9a12d" opacity=".5" stroke="#000" stroke-width=".065182"/></svg>